<svg xmlns="http://www.w3.org/2000/svg" width="103" height="103" viewBox="0 0 103 103">
  <g fill="none" fill-rule="evenodd">
    <rect width="103" height="49" y="24" fill="#000" rx="9"/>
    <g fill="#FFF" transform="translate(5 32)">
      <polygon points="72.092 34 63 34 63 1 73.253 1 83.408 19.059 83.408 1 92 1 92 34 81.495 34 72.092 17.5"/>
      <path d="M60.1922257 10.61086C59.5962286 3.53695332 55.4498954 0 47.753226 0 36.2082219 0 35.6948382 8.84307411 35.6948382 11.1745619 35.6948382 13.5060497 36.1197074 18.5807487 43.4221472 20.4673541 50.724587 22.3539595 51.4121058 22.8356276 50.758631 24.3835628 50.1051563 25.9314979 43.8422503 25.5399807 43.4221472 22.4520547L35 22.4520547C35.1266437 30.1506849 39.6975057 34 48.7125861 34 57.7276665 34 61.7820809 29.743682 60.8758294 21.2310459 59.9811529 15.4742859 57.0796955 12.5959059 52.1714574 12.5959059 44.8091001 12.5959059 44.9854481 11.106517 44.9503828 10.1127851 44.9153174 9.11905318 47.2560132 8.1021791 49.4695546 8.63496724 50.9452489 8.99015933 51.6996641 9.63698888 51.7328003 10.5754559L60.1922257 10.61086zM32.5593825 12.9966708C30.5192851 4.33222359 25.2317622 0 16.6968137 0 3.8943909 0 0 11.212546 0 17.1862625 0 23.159979 2.70669872 34 16.6968137 34 26.023557 34 31.3110799 29.3481689 32.5593825 20.0445067L33 14.6809182 16.6968137 14.6809182 16.5 22.3774312 23.307097 22.3238129C22.2055534 24.043105 21.1242894 25.314499 16.6968137 25.38041 11.8702565 25.4522621 9.11029366 22.5393377 9.03912747 17.1862625 8.96796129 11.8331873 12.4367171 8.93183809 16.6968137 8.93183809 19.5368781 8.93183809 21.5840126 10.2867823 22.8382174 12.9966708L32.5593825 12.9966708z"/>
    </g>
  </g>
</svg>
