<?xml version="1.0" encoding="UTF-8"?>
<svg width="180px" height="70px" viewBox="0 0 180 70" version="1.1" xmlns="http://www.w3.org/2000/svg" xmlns:xlink="http://www.w3.org/1999/xlink">
    <!-- Generator: Sketch 55.2 (78181) - https://sketchapp.com -->
    <title>ethfund</title>
    <desc>Created with Sketch.</desc>
    <g id="Zeppelin-Desktop" stroke="none" stroke-width="1" fill="none" fill-rule="evenodd">
        <rect id="Rectangle-Copy-15" fill="#F8F8FA" opacity="0" x="0" y="0" width="180" height="70"></rect>
        <g id="ethereumfoundation" transform="translate(27.000000, 13.000000)" fill-rule="nonzero">
            <polygon id="Path" fill="#FFE94D" points="12.6604031 30.1891786 12.6604031 0 0 22.0900477"></polygon>
            <polygon id="Path" fill="#FF9C92" points="12.6604031 0 25.3042998 22.0900477 12.6604031 30.1891786"></polygon>
            <polyline id="Path" fill="#53D3E0" points="0 24.6957107 12.6604031 32.8114382 12.6604031 43.28388"></polyline>
            <polyline id="Path" fill="#5A9DED" points="25.3042998 24.6957107 12.6604031 32.8114382 12.6604031 43.28388"></polyline>
            <polygon id="Path" fill="#88D848" opacity="0.75" points="12.6604031 14.8539389 0 22.0900477 12.6604031 30.1891786"></polygon>
            <polygon id="Path" fill="#CC71C3" opacity="0.75" points="12.6604031 14.8539389 25.3042998 22.0900477 12.6604031 30.1891786"></polygon>
            <path d="M33.5079769,14.1070928 C33.557496,15.6671713 34.6799307,16.4140174 35.9674294,16.4140174 C36.792749,16.4140174 37.6015622,16.0820858 37.9316901,15.3186431 L40.0775211,15.3186431 C39.5988357,17.3434258 37.7666261,18.405607 35.868391,18.405607 C33.5740024,18.405607 31.2961203,16.8455285 31.2961203,13.4432296 C31.2961203,10.1571068 33.4584577,8.46425568 35.8848974,8.46425568 C38.1957923,8.46425568 40.1600531,10.0077376 40.1600531,13.1610877 L40.1600531,14.1070928 L33.5079769,14.1070928 Z M33.5740024,12.4142417 L37.8986773,12.4142417 C37.8986773,11.1529016 37.0238385,10.4392487 35.8518846,10.4392487 C34.7954755,10.4392487 33.7720791,11.020129 33.5740024,12.4142417 Z M47.4228658,18.1898514 L45.9207841,18.1898514 C44.1215873,18.1898514 42.9991526,17.6255677 42.9991526,15.0696944 L42.9991526,10.7047939 L41.2659814,10.7047939 L41.2659814,8.63022147 L42.9991526,8.63022147 L42.9991526,6.47266611 L45.2935411,5.84199608 L45.2935411,8.63022147 L47.1917763,8.63022147 L47.1917763,10.7047939 L45.2935411,10.7047939 L45.2935411,15.0033081 C45.2935411,15.6671713 45.4751115,16.1484721 46.4324822,16.1484721 L47.4063594,16.1484721 L47.4063594,18.1898514 L47.4228658,18.1898514 Z M57.986957,12.0159237 L57.986957,18.1898514 L55.6925684,18.1898514 L55.6925684,12.2150827 C55.6925684,11.136305 55.0488191,10.505635 53.909878,10.505635 C52.5398475,10.505635 51.8135662,11.45164 51.8135662,13.0117185 L51.8135662,18.1732548 L49.5191776,18.1732548 L49.5191776,4.97897393 L51.8300726,4.97897393 L51.8300726,10.0409308 C52.3582771,9.12811887 53.1010648,8.46425568 54.7186913,8.46425568 C56.8810287,8.4476591 57.986957,9.74219232 57.986957,12.0159237 L57.986957,12.0159237 Z M62.4271766,14.1070928 C62.4766958,15.6671713 63.5991305,16.4140174 64.8866291,16.4140174 C65.7119487,16.4140174 66.5207619,16.0820858 66.8508898,15.3186431 L68.9967208,15.3186431 C68.5180354,17.3434258 66.6858259,18.405607 64.7875907,18.405607 C62.4932022,18.405607 60.21532,16.8455285 60.21532,13.4432296 C60.21532,10.1571068 62.3776574,8.46425568 64.8040971,8.46425568 C67.1149921,8.46425568 69.0792528,10.0077376 69.0792528,13.1610877 L69.0792528,14.1070928 L62.4271766,14.1070928 L62.4271766,14.1070928 Z M62.4766958,12.4142417 L66.8013706,12.4142417 C66.8013706,11.1529016 65.9265318,10.4392487 64.7545779,10.4392487 C63.6981688,10.4392487 62.6912789,11.020129 62.4766958,12.4142417 Z M76.7547253,10.7545837 L76.1439888,10.7545837 C74.5428687,10.7545837 73.6680299,11.6342024 73.6680299,13.5096159 L73.6680299,18.1898514 L71.3736414,18.1898514 L71.3736414,8.63022147 L73.6515235,8.63022147 L73.6515235,10.0409308 C74.1302089,8.99534623 75.0215541,8.51404542 76.1274824,8.51404542 L76.7547253,8.51404542 L76.7547253,10.7545837 L76.7547253,10.7545837 Z M80.0890166,14.1070928 C80.1385358,15.6671713 81.2609705,16.4140174 82.5484691,16.4140174 C83.3737887,16.4140174 84.182602,16.0820858 84.5127298,15.3186431 L86.6585608,15.3186431 C86.1798755,17.3434258 84.3476659,18.405607 82.4494308,18.405607 C80.1550422,18.405607 77.87716,16.8455285 77.87716,13.4432296 C77.87716,10.1571068 80.0394974,8.46425568 82.4659371,8.46425568 C84.7768321,8.46425568 86.7410928,10.0077376 86.7410928,13.1610877 L86.7410928,14.1070928 L80.0890166,14.1070928 L80.0890166,14.1070928 Z M80.1385358,12.4142417 L84.4632106,12.4142417 C84.4632106,11.1529016 83.5883718,10.4392487 82.416418,10.4392487 C81.3600088,10.4392487 80.3366125,11.020129 80.1385358,12.4142417 L80.1385358,12.4142417 Z M97.2391585,18.1898514 L94.9942891,18.1898514 L94.9942891,16.8289319 C94.4330717,17.7251472 93.6572713,18.2894309 92.3532663,18.2894309 C90.3559928,18.2894309 88.936443,17.0114943 88.936443,14.5552004 L88.936443,8.63022147 L91.2308316,8.63022147 L91.2308316,14.4058312 C91.2308316,15.7003645 91.9075937,16.2646482 92.8979772,16.2646482 C93.9708927,16.2646482 94.9447699,15.4680123 94.9447699,13.2606672 L94.9447699,8.63022147 L97.2391585,8.63022147 L97.2391585,18.1898514 L97.2391585,18.1898514 Z M113.762057,11.7503785 L113.762057,18.206448 L111.467669,18.206448 L111.467669,12.1984861 C111.467669,11.0699187 110.939464,10.5388281 109.949081,10.5388281 C108.859659,10.5388281 108.116871,11.2026913 108.116871,12.8291562 L108.116871,18.206448 L105.822483,18.206448 L105.822483,12.1984861 C105.822483,11.0699187 105.244759,10.5388281 104.287388,10.5388281 C103.214473,10.5388281 102.471685,11.2192879 102.471685,12.8125596 L102.471685,18.206448 L100.193803,18.206448 L100.193803,8.63022147 L102.455179,8.63022147 L102.455179,10.0409308 C102.752294,9.27748809 103.511588,8.46425568 104.947644,8.46425568 C106.218636,8.46425568 107.1595,9.04513597 107.605173,10.0409308 C107.968314,9.36047098 108.694595,8.46425568 110.41126,8.46425568 C112.474559,8.4476591 113.762057,9.675806 113.762057,11.7503785 L113.762057,11.7503785 Z M35.5052504,24.9446594 C34.6964371,24.9446594 34.5478796,25.3595739 34.5478796,25.907261 L34.5478796,26.537931 L36.2975572,26.537931 L36.2975572,28.6125035 L34.5478796,28.6125035 L34.5478796,36.097561 L32.253491,36.097561 L32.253491,28.6125035 L30.8339413,28.6125035 L30.8339413,26.5545276 L32.253491,26.5545276 L32.253491,26.0400336 C32.253491,23.4675638 33.3759257,22.9198766 35.1586161,22.9198766 L36.5451531,22.9198766 L36.5451531,24.961256 L35.5052504,24.961256 L35.5052504,24.9446594 Z M47.010206,31.3343426 C47.010206,34.4544996 45.0624516,36.3133165 42.2728713,36.3133165 C39.4997974,36.3133165 37.552043,34.4544996 37.552043,31.3343426 C37.552043,28.2307822 39.4997974,26.3719652 42.2728713,26.3719652 C45.0624516,26.3719652 47.010206,28.2307822 47.010206,31.3343426 Z M39.9124572,31.3343426 C39.9124572,33.2595458 40.9358535,34.1723577 42.3223905,34.1723577 C43.8079658,34.1723577 44.6662982,33.1267732 44.6662982,31.3343426 C44.6662982,29.4257359 43.6429019,28.512924 42.2563649,28.512924 C40.7707896,28.512924 39.9124572,29.5585086 39.9124572,31.3343426 Z M57.524778,36.1141576 L55.296415,36.1141576 L55.296415,34.753238 C54.7351977,35.6494533 53.9593972,36.213737 52.6553922,36.213737 C50.6581187,36.213737 49.238569,34.9358004 49.238569,32.4795066 L49.238569,26.5545276 L51.5329575,26.5545276 L51.5329575,32.3301374 C51.5329575,33.6246706 52.2097196,34.1889543 53.2001032,34.1889543 C54.2730187,34.1889543 55.2468958,33.3923185 55.2468958,31.1849734 L55.2468958,26.5545276 L57.5412844,26.5545276 L57.5412844,36.1141576 L57.524778,36.1141576 Z M68.9306953,29.9402299 L68.9306953,36.1141576 L66.6363067,36.1141576 L66.6363067,30.1393888 C66.6363067,29.0606112 65.9925574,28.4299411 64.8536163,28.4299411 C63.4835857,28.4299411 62.7573044,29.3759462 62.7573044,30.9360247 L62.7573044,36.097561 L60.4629159,36.097561 L60.4629159,26.5545276 L62.7407981,26.5545276 L62.7407981,27.9486403 C63.2690026,27.052425 64.0613095,26.3885618 65.6459231,26.3885618 C67.824767,26.3719652 68.9306953,27.6664985 68.9306953,29.9402299 L68.9306953,29.9402299 Z M80.6997531,36.1141576 L78.4383774,36.1141576 L78.4383774,34.6536585 C77.9266792,35.7490328 76.7382189,36.3299131 75.4177075,36.3299131 C73.0903062,36.3299131 71.1425519,34.6868517 71.1425519,31.3343426 C71.1425519,28.0316232 73.0903062,26.3885618 75.4177075,26.3885618 C76.655687,26.3885618 77.8276408,26.8864592 78.3888582,27.8158677 L78.3888582,22.9032801 L80.6832467,22.9032801 L80.6832467,36.1141576 L80.6997531,36.1141576 Z M78.4548838,31.317746 C78.4548838,29.342753 77.2003979,28.4133445 75.9624185,28.4133445 C74.6254007,28.4133445 73.4864596,29.3593496 73.4864596,31.317746 C73.4864596,33.2429493 74.6254007,34.2055509 75.9624185,34.2055509 C77.2003979,34.2055509 78.4548838,33.2761424 78.4548838,31.317746 Z M91.2968572,29.6912812 L91.2968572,36.1307541 L89.0519878,36.1307541 L89.0519878,34.7366414 C88.3092001,35.9647883 87.0712207,36.3299131 86.0643307,36.3299131 C84.5457426,36.3299131 82.9941417,35.5166807 82.9941417,33.491898 C82.9941417,31.1019905 85.1564791,30.687076 86.0313179,30.5543033 L88.012085,30.2721615 C88.4412512,30.2223717 89.1345197,30.0232128 89.1345197,29.2431735 C89.1345197,28.4797309 88.4577576,28.197589 87.5829188,28.197589 C86.3119266,28.197589 85.6846837,28.7950659 85.5856453,29.6082983 L83.3902951,29.6082983 C83.637891,27.3843566 85.5361262,26.3719652 87.6819572,26.3719652 C89.943333,26.3719652 91.2968572,27.4341463 91.2968572,29.6912812 L91.2968572,29.6912812 Z M89.0850006,32.0977853 L89.0850006,31.5998879 C88.7878855,31.7326605 88.474264,31.7990468 87.9460595,31.8820297 L86.8236248,32.0313989 C86.2293946,32.0977853 85.2885303,32.3633305 85.2885303,33.3093356 C85.2885303,34.0395851 85.8497476,34.4047098 86.6750672,34.4047098 C88.012085,34.4047098 89.0850006,33.4255116 89.0850006,32.0977853 L89.0850006,32.0977853 Z M99.0383553,36.1141576 L97.5362735,36.1141576 C95.7370767,36.1141576 94.6146421,35.5498738 94.6146421,32.9940006 L94.6146421,28.6291001 L92.8814708,28.6291001 L92.8814708,26.5545276 L94.6146421,26.5545276 L94.6146421,24.3969722 L96.9090306,23.7663022 L96.9090306,26.5545276 L98.8072658,26.5545276 L98.8072658,28.6291001 L96.9090306,28.6291001 L96.9090306,32.9276142 C96.9090306,33.5914774 97.0906009,34.0727782 98.0479717,34.0727782 L99.0218489,34.0727782 L99.0218489,36.1141576 L99.0383553,36.1141576 Z M101.035629,22.6543314 L103.478575,22.6543314 L103.478575,25.276591 L101.035629,25.276591 L101.035629,22.6543314 Z M101.101654,36.1141576 L103.396043,36.1141576 L103.396043,26.5545276 L101.101654,26.5545276 L101.101654,36.1141576 L101.101654,36.1141576 Z M115.099075,31.3343426 C115.099075,34.4544996 113.151321,36.3133165 110.361741,36.3133165 C107.588667,36.3133165 105.640912,34.4544996 105.640912,31.3343426 C105.640912,28.2307822 107.588667,26.3719652 110.361741,26.3719652 C113.151321,26.3719652 115.099075,28.2307822 115.099075,31.3343426 L115.099075,31.3343426 Z M108.001326,31.3343426 C108.001326,33.2595458 109.024723,34.1723577 110.41126,34.1723577 C111.896835,34.1723577 112.755167,33.1267732 112.755167,31.3343426 C112.755167,29.4257359 111.731771,28.512924 110.345234,28.512924 C108.859659,28.512924 108.001326,29.5585086 108.001326,31.3343426 Z M125.861243,29.9402299 L125.861243,36.1141576 L123.566855,36.1141576 L123.566855,30.1393888 C123.566855,29.0606112 122.923105,28.4299411 121.784164,28.4299411 C120.414134,28.4299411 119.687852,29.3759462 119.687852,30.9360247 L119.687852,36.097561 L117.393464,36.097561 L117.393464,26.5545276 L119.671346,26.5545276 L119.671346,27.9486403 C120.19955,27.052425 120.991857,26.3885618 122.576471,26.3885618 C124.738808,26.3719652 125.861243,27.6664985 125.861243,29.9402299 L125.861243,29.9402299 Z" id="Shape" fill="#22222D"></path>
        </g>
    </g>
</svg>