<svg xmlns="http://www.w3.org/2000/svg" width="74" height="86" viewBox="0 0 74 86">
  <g fill="none">
    <g fill="#4E5EE4">
      <polygon points="37 0 74 24 0 24"/>
      <polygon points="37 62 74 86 0 86" transform="rotate(-180 37 74)"/>
      <polygon points="0 24 0 62 74 62 74 24"/>
    </g>
    <rect width="23" height="38" x="26" y="24" stroke="#FFF" stroke-width="4" rx="1"/>
    <rect width="35" height="28" x="20" y="29" fill="#4E5EE4"/>
    <path stroke="#FFF" stroke-width="4" d="M30.301216,51 L42,51 C46.9705627,51 51,46.9705627 51,42 C51,37.0294373 46.9705627,33 42,33 C39.4259644,33 37.0309804,34.083704 35.3340116,35.9530133 L34.4197511,36.9601242 L33.14713,36.4799366 C32.3096657,36.1639432 31.4176566,36 30.5,36 C26.3578644,36 23,39.3578644 23,43.5 C23,47.4948499 26.1323303,50.78383 30.1035672,50.9897513 L30.301216,51 Z"/>
  </g>
</svg>
