<svg xmlns="http://www.w3.org/2000/svg" width="172" height="27" viewBox="0 0 172 27">
  <g fill="none">
    <path fill="#63D2F9" d="M24.9841321,26.9212644 L24.9841321,19.9193666 L17.1414733,19.9193666 C15.0086989,19.9193666 13.0330902,21.0078924 11.9407477,22.785028 L9.39819427,26.9212644 L24.9841321,26.9212644 Z"/>
    <polygon fill="#4E5EE4" points=".023 .022 .023 7.024 20.68 7.024 24.984 .022"/>
    <path fill="#63B0F9" d="M9.90929123,10.9653444 L0.0458682089,26.9212779 L8.449272,26.9212779 L20.2441658,7.83226444 L15.6037687,7.83226444 C13.2696904,7.83226444 11.1073056,9.02200355 9.90929123,10.9653444 Z"/>
    <path fill="#282846" d="M42.0703791,20.792857 C37.997226,20.792857 35,17.787755 35,13.755102 C35,9.76122448 38.016439,6.71734695 42.0895921,6.71734695 C46.1627452,6.71734695 49.1791842,9.79999999 49.1791842,13.755102 C49.1791842,17.7489795 46.1435323,20.792857 42.0703791,20.792857 Z M42.0895921,18.3306122 C44.6641323,18.3306122 46.5085791,16.3918368 46.5085791,13.755102 C46.5085791,11.1571428 44.6641323,9.17959184 42.0895921,9.17959184 C39.4958389,9.17959184 37.6513922,11.1571428 37.6513922,13.755102 C37.6513922,16.3918368 39.4958389,18.3306122 42.0895921,18.3306122 Z M51.9067185,25 L51.9067185,10.3428571 L54.3659806,10.3428571 L54.3659806,11.6418367 L54.5004716,11.6418367 C54.7694534,11.2153061 55.6916768,10.0908163 57.5361235,10.0908163 C60.3604326,10.0908163 62.3009442,12.2234694 62.3009442,15.4030613 C62.3009442,18.5826531 60.3796455,20.792857 57.6129754,20.792857 C55.8261677,20.792857 54.8655183,19.7846939 54.5388976,19.2224489 L54.4044067,19.2224489 L54.4044067,25 L51.9067185,25 Z M57.0557988,18.505102 C58.6696897,18.505102 59.7648299,17.2448979 59.7648299,15.4418368 C59.7648299,13.5806122 58.6696897,12.3785714 57.0365858,12.3785714 C55.3842691,12.3785714 54.3467677,13.7163265 54.3467677,15.4418368 C54.3467677,17.3418367 55.4995469,18.505102 57.0557988,18.505102 Z M69.4474654,20.792857 C66.4694525,20.792857 64.3560239,18.5438776 64.3560239,15.4999999 C64.3560239,12.2816326 66.4886654,10.0908163 69.4474654,10.0908163 C72.6944601,10.0908163 74.4620548,12.5142857 74.4620548,15.3836735 L74.4620548,16.1785714 L66.7768602,16.1785714 C66.8537121,17.7295919 67.9104264,18.7765305 69.5243173,18.7765305 C70.7539485,18.7765305 71.6953847,18.1948979 72.0412186,17.3612245 L74.3659899,17.3612245 C73.8664523,19.4357143 72.0604315,20.792857 69.4474654,20.792857 Z M66.8152862,14.3948979 L72.0796446,14.3948979 C71.9643666,13.0183673 70.9076523,12.1071428 69.4474654,12.1071428 C68.0449173,12.1071428 66.9689901,13.1153061 66.8152862,14.3948979 Z M77.1511631,20.5408163 L77.1511631,10.3428571 L79.5335736,10.3428571 L79.5335736,11.5836735 L79.6680645,11.5836735 C80.0715372,10.827551 81.0706124,10.0908163 82.5115865,10.0908163 C84.7787189,10.0908163 86.1620539,11.7 86.1620539,13.8714286 L86.1620539,20.5408163 L83.6643657,20.5408163 L83.6643657,14.5306122 C83.6643657,13.2897959 82.8766332,12.4561224 81.7238539,12.4561224 C80.5134359,12.4561224 79.6488514,13.4255102 79.6488514,14.705102 L79.6488514,20.5408163 L77.1511631,20.5408163 Z M88.6398194,20.5408163 L88.6398194,18.2336734 L95.6333464,9.33469387 L95.6333464,9.19897958 L88.8895882,9.19897958 L88.8895882,6.96938775 L98.8227022,6.96938775 L98.8227022,9.25714285 L91.8291752,18.1561224 L91.8291752,18.3112245 L98.8611283,18.3112245 L98.8611283,20.5408163 L88.6398194,20.5408163 Z M105.62339,20.792857 C102.645377,20.792857 100.531948,18.5438776 100.531948,15.4999999 C100.531948,12.2816326 102.66459,10.0908163 105.62339,10.0908163 C108.870384,10.0908163 110.637979,12.5142857 110.637979,15.3836735 L110.637979,16.1785714 L102.952785,16.1785714 C103.029636,17.7295919 104.086351,18.7765305 105.700242,18.7765305 C106.929873,18.7765305 107.871309,18.1948979 108.217143,17.3612245 L110.541914,17.3612245 C110.042377,19.4357143 108.236356,20.792857 105.62339,20.792857 Z M102.99121,14.3948979 L108.255569,14.3948979 C108.140291,13.0183673 107.083577,12.1071428 105.62339,12.1071428 C104.220842,12.1071428 103.144914,13.1153061 102.99121,14.3948979 Z M113.327088,25 L113.327088,10.3428571 L115.78635,10.3428571 L115.78635,11.6418367 L115.920841,11.6418367 C116.189822,11.2153061 117.112046,10.0908163 118.956493,10.0908163 C121.780802,10.0908163 123.721313,12.2234694 123.721313,15.4030613 C123.721313,18.5826531 121.800015,20.792857 119.033344,20.792857 C117.246537,20.792857 116.285887,19.7846939 115.959267,19.2224489 L115.824776,19.2224489 L115.824776,25 L113.327088,25 Z M118.476168,18.505102 C120.090059,18.505102 121.185199,17.2448979 121.185199,15.4418368 C121.185199,13.5806122 120.090059,12.3785714 118.456955,12.3785714 C116.804638,12.3785714 115.767137,13.7163265 115.767137,15.4418368 C115.767137,17.3418367 116.919916,18.505102 118.476168,18.505102 Z M126.410422,25 L126.410422,10.3428571 L128.869684,10.3428571 L128.869684,11.6418367 L129.004175,11.6418367 C129.273157,11.2153061 130.19538,10.0908163 132.039827,10.0908163 C134.864136,10.0908163 136.804647,12.2234694 136.804647,15.4030613 C136.804647,18.5826531 134.883349,20.792857 132.116679,20.792857 C130.329871,20.792857 129.369221,19.7846939 129.042601,19.2224489 L128.90811,19.2224489 L128.90811,25 L126.410422,25 Z M131.559502,18.505102 C133.173393,18.505102 134.268533,17.2448979 134.268533,15.4418368 C134.268533,13.5806122 133.173393,12.3785714 131.540289,12.3785714 C129.887972,12.3785714 128.850471,13.7163265 128.850471,15.4418368 C128.850471,17.3418367 130.00325,18.505102 131.559502,18.505102 Z M143.951168,20.792857 C140.973155,20.792857 138.859727,18.5438776 138.859727,15.4999999 C138.859727,12.2816326 140.992368,10.0908163 143.951168,10.0908163 C147.198164,10.0908163 148.965759,12.5142857 148.965759,15.3836735 L148.965759,16.1785714 L141.280564,16.1785714 C141.357415,17.7295919 142.41413,18.7765305 144.028021,18.7765305 C145.257652,18.7765305 146.199088,18.1948979 146.544922,17.3612245 L148.869693,17.3612245 C148.370155,19.4357143 146.564135,20.792857 143.951168,20.792857 Z M141.31899,14.3948979 L146.583347,14.3948979 C146.46807,13.0183673 145.411356,12.1071428 143.951168,12.1071428 C142.54862,12.1071428 141.472693,13.1153061 141.31899,14.3948979 Z M154.114129,20.5408163 C152.346534,20.5408163 151.347459,19.4744898 151.347459,17.6714285 L151.347459,6 L153.845147,6 L153.845147,17.4387755 C153.845147,18.0204081 154.133341,18.3306122 154.652092,18.3306122 L155.055564,18.3306122 L155.055564,20.5408163 L154.114129,20.5408163 Z M158.705323,8.98571428 C157.802312,8.98571428 157.168283,8.42346938 157.168283,7.51224489 C157.168283,6.63979592 157.802312,6.05816326 158.705323,6.05816326 C159.608333,6.05816326 160.242361,6.63979592 160.242361,7.51224489 C160.242361,8.42346938 159.608333,8.98571428 158.705323,8.98571428 Z M157.456479,20.5408163 L157.456479,10.3428571 L159.954167,10.3428571 L159.954167,20.5408163 L157.456479,20.5408163 Z M162.989108,20.5408163 L162.989108,10.3428571 L165.37152,10.3428571 L165.37152,11.5836735 L165.50601,11.5836735 C165.909483,10.827551 166.908558,10.0908163 168.349532,10.0908163 C170.616665,10.0908163 172,11.7 172,13.8714286 L172,20.5408163 L169.502311,20.5408163 L169.502311,14.5306122 C169.502311,13.2897959 168.714579,12.4561224 167.561799,12.4561224 C166.351382,12.4561224 165.486797,13.4255102 165.486797,14.705102 L165.486797,20.5408163 L162.989108,20.5408163 Z"/>
  </g>
</svg>
