<svg xmlns="http://www.w3.org/2000/svg" width="223" height="35" viewBox="0 0 223 35">
  <g fill="none">
    <path fill="#63D2F9" d="M31.9796891,34.8979353 L31.9796891,25.8214012 L21.9410859,25.8214012 C19.2111346,25.8214012 16.6823555,27.2324531 15.284157,29.5361474 L12.0296887,34.8979353 L31.9796891,34.8979353 Z"/>
    <polygon fill="#4E5EE4" points=".03 .029 .03 9.106 26.47 9.106 31.98 .029"/>
    <path fill="#63B0F9" d="M12.6838928,14.2143353 L0.0587113074,34.8979528 L10.8150682,34.8979528 L25.9125322,10.1529354 L19.972824,10.1529354 C16.9852037,10.1529354 14.2173511,11.6951898 12.6838928,14.2143353 Z"/>
    <path fill="#282846" d="M54.1863319,26.6857142 C48.894206,26.6857142 45,22.8897958 45,17.7959183 C45,12.7510204 48.9191689,8.90612246 54.2112948,8.90612246 C59.5034208,8.90612246 63.4225897,12.8 63.4225897,17.7959183 C63.4225897,22.8408162 59.478458,26.6857142 54.1863319,26.6857142 Z M54.2112948,23.5755101 C57.5563179,23.5755101 59.9527524,21.1265307 59.9527524,17.7959183 C59.9527524,14.5142857 57.5563179,12.0163265 54.2112948,12.0163265 C50.8413089,12.0163265 48.4448746,14.5142857 48.4448746,17.7959183 C48.4448746,21.1265307 50.8413089,23.5755101 54.2112948,23.5755101 Z M66.9663933,32 L66.9663933,13.4857143 L70.1616391,13.4857143 L70.1616391,15.1265306 L70.3363791,15.1265306 C70.6858591,14.5877551 71.8840765,13.1673469 74.2805108,13.1673469 C77.9500511,13.1673469 80.4712997,15.8612245 80.4712997,19.8775511 C80.4712997,23.8938776 77.9750138,26.6857142 74.3803622,26.6857142 C72.0588165,26.6857142 70.8106735,25.4122449 70.386305,24.7020407 L70.211565,24.7020407 L70.211565,32 L66.9663933,32 Z M73.6564394,23.7959183 C75.7533195,23.7959183 77.1762024,22.2040815 77.1762024,19.9265306 C77.1762024,17.5755102 75.7533195,16.0571428 73.6314764,16.0571428 C71.4846707,16.0571428 70.1366763,17.7469387 70.1366763,19.9265306 C70.1366763,22.3265305 71.6344478,23.7959183 73.6564394,23.7959183 Z M89.7565609,26.6857142 C85.8873178,26.6857142 83.1414033,23.844898 83.1414033,19.9999999 C83.1414033,15.9346939 85.9122806,13.1673469 89.7565609,13.1673469 C93.9752839,13.1673469 96.2718669,16.2285714 96.2718669,19.8530612 L96.2718669,20.8571428 L86.2867235,20.8571428 C86.3865749,22.8163265 87.7595321,24.1387754 89.8564122,24.1387754 C91.4540353,24.1387754 92.6772152,23.4040815 93.1265468,22.3510204 L96.1470526,22.3510204 C95.4980184,24.9714286 93.1515096,26.6857142 89.7565609,26.6857142 Z M86.3366492,18.6040816 L93.1764725,18.6040816 C93.0266952,16.8653061 91.6537381,15.7142857 89.7565609,15.7142857 C87.9342721,15.7142857 86.5363522,16.9877551 86.3366492,18.6040816 Z M99.7657448,26.3673469 L99.7657448,13.4857143 L102.861139,13.4857143 L102.861139,15.0530612 L103.035879,15.0530612 C103.560099,14.0979592 104.858168,13.1673469 106.730382,13.1673469 C109.676,13.1673469 111.473326,15.2 111.473326,17.9428571 L111.473326,26.3673469 L108.228154,26.3673469 L108.228154,18.7755102 C108.228154,17.2081633 107.204677,16.155102 105.706905,16.155102 C104.134245,16.155102 103.010916,17.3795918 103.010916,18.9959183 L103.010916,26.3673469 L99.7657448,26.3673469 Z M114.692612,26.3673469 L114.692612,23.4530611 L123.779092,12.2122449 L123.779092,12.0408163 L115.017129,12.0408163 L115.017129,9.22448979 L127.922927,9.22448979 L127.922927,12.1142857 L118.836447,23.355102 L118.836447,23.5510204 L127.972853,23.5510204 L127.972853,26.3673469 L114.692612,26.3673469 Z M136.758857,26.6857142 C132.889614,26.6857142 130.143699,23.844898 130.143699,19.9999999 C130.143699,15.9346939 132.914577,13.1673469 136.758857,13.1673469 C140.97758,13.1673469 143.274163,16.2285714 143.274163,19.8530612 L143.274163,20.8571428 L133.289019,20.8571428 C133.388871,22.8163265 134.761828,24.1387754 136.858708,24.1387754 C138.456331,24.1387754 139.679511,23.4040815 140.128843,22.3510204 L143.149349,22.3510204 C142.500314,24.9714286 140.153805,26.6857142 136.758857,26.6857142 Z M133.338945,18.6040816 L140.178768,18.6040816 C140.028991,16.8653061 138.656034,15.7142857 136.758857,15.7142857 C134.936568,15.7142857 133.538648,16.9877551 133.338945,18.6040816 Z M146.768041,32 L146.768041,13.4857143 L149.963287,13.4857143 L149.963287,15.1265306 L150.138027,15.1265306 C150.487507,14.5877551 151.685724,13.1673469 154.082158,13.1673469 C157.751698,13.1673469 160.272947,15.8612245 160.272947,19.8775511 C160.272947,23.8938776 157.776661,26.6857142 154.18201,26.6857142 C151.860464,26.6857142 150.612321,25.4122449 150.187952,24.7020407 L150.013212,24.7020407 L150.013212,32 L146.768041,32 Z M153.458087,23.7959183 C155.554967,23.7959183 156.97785,22.2040815 156.97785,19.9265306 C156.97785,17.5755102 155.554967,16.0571428 153.433124,16.0571428 C151.286318,16.0571428 149.938324,17.7469387 149.938324,19.9265306 C149.938324,22.3265305 151.436095,23.7959183 153.458087,23.7959183 Z M163.766825,32 L163.766825,13.4857143 L166.962071,13.4857143 L166.962071,15.1265306 L167.136811,15.1265306 C167.486291,14.5877551 168.684508,13.1673469 171.080943,13.1673469 C174.750483,13.1673469 177.271732,15.8612245 177.271732,19.8775511 C177.271732,23.8938776 174.775446,26.6857142 171.180794,26.6857142 C168.859248,26.6857142 167.611105,25.4122449 167.186737,24.7020407 L167.011997,24.7020407 L167.011997,32 L163.766825,32 Z M170.456871,23.7959183 C172.553751,23.7959183 173.976634,22.2040815 173.976634,19.9265306 C173.976634,17.5755102 172.553751,16.0571428 170.431908,16.0571428 C168.285103,16.0571428 166.937108,17.7469387 166.937108,19.9265306 C166.937108,22.3265305 168.43488,23.7959183 170.456871,23.7959183 Z M186.556992,26.6857142 C182.687749,26.6857142 179.941835,23.844898 179.941835,19.9999999 C179.941835,15.9346939 182.712712,13.1673469 186.556992,13.1673469 C190.775716,13.1673469 193.0723,16.2285714 193.0723,19.8530612 L193.0723,20.8571428 L183.087156,20.8571428 C183.187006,22.8163265 184.559964,24.1387754 186.656844,24.1387754 C188.254468,24.1387754 189.477647,23.4040815 189.926979,22.3510204 L192.947485,22.3510204 C192.298449,24.9714286 189.951942,26.6857142 186.556992,26.6857142 Z M183.137082,18.6040816 L189.976904,18.6040816 C189.827127,16.8653061 188.454171,15.7142857 186.556992,15.7142857 C184.734703,15.7142857 183.336783,16.9877551 183.137082,18.6040816 Z M199.761423,26.3673469 C197.464839,26.3673469 196.166772,25.0204082 196.166772,22.7428571 L196.166772,8 L199.411943,8 L199.411943,22.4489795 C199.411943,23.1836734 199.786385,23.5755101 200.460383,23.5755101 L200.984602,23.5755101 L200.984602,26.3673469 L199.761423,26.3673469 Z M205.726624,11.7714286 C204.553369,11.7714286 203.729594,11.0612245 203.729594,9.91020408 C203.729594,8.80816327 204.553369,8.07346939 205.726624,8.07346939 C206.899878,8.07346939 207.723651,8.80816327 207.723651,9.91020408 C207.723651,11.0612245 206.899878,11.7714286 205.726624,11.7714286 Z M204.104038,26.3673469 L204.104038,13.4857143 L207.349209,13.4857143 L207.349209,26.3673469 L204.104038,26.3673469 Z M211.292418,26.3673469 L211.292418,13.4857143 L214.387814,13.4857143 L214.387814,15.0530612 L214.562553,15.0530612 C215.086774,14.0979592 216.384842,13.1673469 218.257057,13.1673469 C221.202674,13.1673469 223,15.2 223,17.9428571 L223,26.3673469 L219.754827,26.3673469 L219.754827,18.7755102 C219.754827,17.2081633 218.731351,16.155102 217.233579,16.155102 C215.660919,16.155102 214.537591,17.3795918 214.537591,18.9959183 L214.537591,26.3673469 L211.292418,26.3673469 Z"/>
  </g>
</svg>
