<svg xmlns="http://www.w3.org/2000/svg" width="53" height="48" viewBox="0 0 53 48">
  <path fill="none" stroke="#282846" stroke-width="2.8" d="M46.3365 44.6112C42.7315 46.6922 38.1215 45.4572 36.0395 41.8522 33.9585 38.2472 35.1935 33.6372 38.7995 31.5552 42.4035 29.4742 47.0145 30.7092 49.0955 34.3142 51.1775 37.9202 49.9415 42.5292 46.3365 44.6112zM11.7076 44.6112C8.1026 46.6922 3.4926 45.4572 1.4106 41.8522-.6704 38.2472.5646 33.6372 4.1706 31.5552 7.7746 29.4742 12.3856 30.7092 14.4666 34.3142 16.5486 37.9202 15.3126 42.5292 11.7076 44.6112zM29.0221 14.4666C25.4171 16.5486 20.8071 15.3126 18.7251 11.7076 16.6441 8.1026 17.8791 3.4926 21.4851 1.4106 25.0891-.6704 29.7001.5646 31.7811 4.1706 33.8631 7.7756 32.6271 12.3846 29.0221 14.4666zM15.4703 38.0833L35.0353 38.0833M21.5025 14.4696L11.6895 31.5526M38.8131 31.5472L29.0071 14.4752" transform="translate(1 1)"/>
</svg>
