<svg xmlns="http://www.w3.org/2000/svg" width="68" height="33" viewBox="0 0 68 33">
  <g fill="none">
    <path fill="#000" d="M44.7077114,26.9221261 C41.0696517,26.9221261 38.4825871,24.7194067 38.52301,21.170581 C38.6038557,18.1112485 40.4228856,15.5822002 44.7481343,15.5822002 L48.5074627,15.5822002 L48.5074627,13.5834363 C48.5074627,12.0333745 48.0223881,10.7280593 45.920398,10.7280593 C43.7375622,10.7280593 43.2524876,11.7886279 43.090796,13.3794808 L39.1293532,13.3794808 C39.2910448,10.1161928 40.7866915,7.38318912 46.0416667,7.38318912 C50.4073383,7.38318912 52.6710199,9.17799753 52.6710199,13.7058096 L52.6710199,26.6773795 L48.7095771,26.6773795 L48.7095771,25.6168109 L48.5478856,25.6168109 C47.7394279,26.1470952 46.8905473,26.9221261 44.7077114,26.9221261 L44.7077114,26.9221261 Z M48.5074627,20.2731768 L48.5074627,18.3559951 L45.3140547,18.3559951 C43.090796,18.3559951 42.4844527,19.4165637 42.4844527,20.9666255 C42.4844527,22.8838072 43.6567164,23.7812114 45.3544776,23.7812114 C47.5373134,23.7404203 48.5074627,22.2719407 48.5074627,20.2731768 L48.5074627,20.2731768 Z M4.36567164,25.4944376 L4.2039801,25.4944376 L4.2039801,33 L0,33 L0,7.62793572 L4.12313433,7.62793572 L4.12313433,8.81087763 L4.28482587,8.81087763 C5.69962687,7.42398022 7.5590796,7.38318912 8.56965174,7.38318912 C12.8544776,7.38318912 15.6840796,11.5030902 15.6840796,17.0098888 L15.6840796,17.7441286 C15.6840796,23.4956737 12.4098259,26.881335 8.52922886,26.881335 C6.62935323,26.8405439 5.29539801,26.4326329 4.36567164,25.4944376 Z M11.7630597,18.0296663 L11.7630597,16.7651422 C11.7630597,13.1755253 10.4291045,10.7688504 8.00373134,10.7688504 C5.37624378,10.7688504 4.00186567,13.5426452 4.00186567,16.7651422 L4.00186567,17.9888752 C4.00186567,21.0482077 5.37624378,23.3733004 8.08457711,23.3733004 C10.1865672,23.4140915 11.7630597,21.7416564 11.7630597,18.0296663 L11.7630597,18.0296663 Z M17.7456468,7.46477132 L21.9496269,7.46477132 L21.9496269,26.5957973 L17.7456468,26.5957973 L17.7456468,7.46477132 Z M24.9004975,0 L29.1044776,0 L29.1044776,26.5957973 L24.9004975,26.5957973 L24.9004975,0 Z M32.0553483,0 L36.2593284,0 L36.2593284,26.5957973 L32.0553483,26.5957973 L32.0553483,0 Z M64.5149254,11.6254635 C62.1299751,11.6254635 59.8258706,13.5018541 59.8258706,15.908529 L59.8258706,26.6365884 L55.6218905,26.6365884 L55.6218905,7.58714462 L59.5024876,7.58714462 L59.5024876,8.77008653 L59.6641791,8.77008653 C60.5939055,7.75030902 62.89801,7.30160692 64.7978856,7.34239802 L65,7.34239802 L65,11.6254635 L64.5149254,11.6254635 Z"/>
    <polygon fill="#FF0005" points="18 0 22 0 22 5 18 5"/>
    <polygon fill="#00BFFF" points="64 22 68 22 68 27 64 27"/>
  </g>
</svg>
