<svg xmlns="http://www.w3.org/2000/svg" viewBox="0 0 856 127">
  <g fill="none" fill-rule="evenodd">
    <path fill="#FFF" d="M510 70.08C510 44.304 529.44 24 556.8 24 573.216 24 584.592 30.192 593.808 39.84L579.264 53.664C573.216 47.76 565.44 44.016 556.8 44.016 541.392 44.016 531.456 55.536 531.456 70.08 531.456 84.624 541.392 96.144 556.8 96.144 565.44 96.144 573.216 92.4 579.264 86.496L593.376 100.32C584.736 109.392 572.784 116.16 556.8 116.16 529.44 116.16 510 95.856 510 70.08zM596.544 113.28L638.592 24 642.336 24 684.672 113.28 661.92 113.28 657.6 104.352 623.472 104.352 619.296 113.28 596.544 113.28zM630.096 89.232L650.4 89.232 640.464 67.344 640.176 67.344 630.096 89.232zM693.888 113.28L693.888 26.88 713.616 26.88 735.648 73.536 757.824 26.88 777.264 26.88 777.264 113.28 756.24 113.28 756.24 74.832 737.376 116.16 733.92 116.16 715.056 74.544 715.056 113.28 693.888 113.28zM791.088 113.28L791.088 26.88 827.232 26.88C844.944 26.88 855.312 39.984 855.312 54.528 855.312 70.656 843.216 82.176 827.232 82.176L812.112 82.176 812.112 113.28 791.088 113.28zM812.112 64.032L825.216 64.032C830.688 64.032 833.712 58.992 833.712 53.952 833.712 49.2 830.832 44.88 825.216 44.88L812.112 44.88 812.112 64.032zM154 115.28L154 28.88 184.096 28.88C209.584 28.88 229.312 47.6 229.312 71.936 229.312 94.976 211.744 115.28 184.096 115.28L154 115.28zM175.168 95.984L183.664 95.984C197.2 95.984 207.568 86.48 207.568 71.936 207.568 58.544 198.496 48.032 183.664 48.032L175.168 48.032 175.168 95.984zM243.712 115.28L243.712 28.88 300.88 28.88 300.88 47.6 264.88 47.6 264.88 63.152 298.144 63.152 298.144 81.584 264.88 81.584 264.88 97.136 302.464 97.136 302.464 115.28 243.712 115.28zM312.688 115.28L312.688 28.88 333.856 28.88 333.856 97.136 371.44 97.136 371.44 115.28 312.688 115.28zM385.408 115.28L385.408 47.6 366.112 47.6 366.112 28.88 426.304 28.88 426.304 47.6 406.72 47.6 406.72 115.28 385.408 115.28zM418.528 115.28L460.576 26 464.32 26 506.656 115.28 483.904 115.28 479.584 106.352 445.456 106.352 441.28 115.28 418.528 115.28zM452.08 91.232L472.384 91.232 462.448 69.344 462.16 69.344 452.08 91.232zM0 120.200493L47.9816278 15.2917787 60.1202842 0 119 127 20.139707 127 0 120.200493zM29 101L77 101 53.5255474 46 29 101z"/>
  </g>
</svg>
