<svg xmlns="http://www.w3.org/2000/svg" width="224" height="365" viewBox="0 0 224 365">
  <path fill-rule="evenodd" d="M53.963,94.977 C24.821,143.331 0.735,179.528 0.435666883,180.304 C0.178555628,180.976667 37.3693333,203.528667 112.008,247.96 C186.627333,202.839333 223.806667,179.939 223.546,179.259 C221.521,173.981 112.545,0 111.356,0 C110.554,0 109.234,1.588 108.423,3.53 C107.612,5.471 83.105,46.622 53.963,94.977 Z M112,364.906 C112.752,364.883 224.004,207.671 223.574,207.24 C223.303333,206.97 186.172667,229.637333 112.182,275.242 C39.6646667,231.054667 2.96066667,208.674 2.07,208.1 C-0.145,206.673 -0.278,206.675 0.57,208.125 C2.73,211.818 111.545,364.92 112,364.906 Z"/>
</svg>
