<svg xmlns="http://www.w3.org/2000/svg" width="67" height="25" viewBox="0 0 67 25">
  <g fill="none" fill-rule="evenodd">
    <path fill="#4E5DE4" d="M23.3447266,9.05419922 C21.8819987,3.01806641 18.0909017,0 11.9714355,0 C2.79223633,0 0,7.8112793 0,11.9729004 C0,16.1345215 1.94067383,23.6862793 11.9714355,23.6862793 C18.65861,23.6862793 22.449707,20.4455566 23.3447266,13.9641113 L23.6606445,10.2275391 L11.9714355,10.2275391 L11.8303223,15.5893555 L16.7109375,15.552002 C15.9211426,16.7497559 15.145888,17.6354792 11.9714355,17.6813965 C8.51084608,17.7314526 6.53198242,15.7021484 6.48095703,11.9729004 C6.42993164,8.24365234 8.91699219,6.22241211 11.9714355,6.22241211 C14.0077311,6.22241211 15.4755046,7.16634115 16.3747559,9.05419922 L23.3447266,9.05419922 Z"/>
    <path fill="#63B0F9" d="M43.0661621,7.5 C42.6387533,2.5 39.6652832,-1.77635684e-15 34.145752,-1.77635684e-15 C25.8664551,-1.77635684e-15 25.498291,6.25048828 25.498291,7.8984375 C25.498291,9.54638672 25.8029785,13.1333008 31.0397949,14.4667969 C36.2766113,15.800293 36.7696533,16.1407471 36.3010254,17.2348633 C35.8323975,18.3289795 31.3410645,18.0522461 31.0397949,15.8696289 L25,15.8696289 C25.0908203,21.3111979 28.3687337,24.0319824 34.8337402,24.0319824 C41.2987467,24.0319824 44.2062988,21.0235189 43.5563965,15.0065918 C42.9147949,10.9375814 40.8340658,8.90307617 37.314209,8.90307617 C32.0344238,8.90307617 32.1608887,7.8503418 32.1357422,7.14794922 C32.1105957,6.44555664 33.7891846,5.72680664 35.3765869,6.10339355 C36.4348551,6.3544515 36.9758708,6.81164551 36.9996338,7.47497559 L43.0661621,7.5 Z"/>
    <polygon fill="#63D2F9" points="52.016 22.933 45.551 22.933 45.551 0 52.842 0 60.062 12.55 60.062 0 66.172 0 66.172 22.933 58.702 22.933 52.016 11.466"/>
  </g>
</svg>
