<svg xmlns="http://www.w3.org/2000/svg" width="171" height="27" viewBox="0 0 171 27">
  <g fill="#FFF">
    <path d="M24,27 L24,20 L16.4521782,20 C14.3995833,20 12.4982456,21.0882308 11.4469686,22.8648847 L9,27 L24,27 Z"/>
    <polygon points="0 0 0 7 19.862 7 24 0"/>
    <path d="M9.76658848 11.1184701L0 27 8.32090304 27 20 8 15.4051602 8C13.0939968 8 10.9528413 9.18419127 9.76658848 11.1184701zM41.0703791 20.792857C36.997226 20.792857 34 17.787755 34 13.755102 34 9.76122448 37.016439 6.71734695 41.0895921 6.71734695 45.1627452 6.71734695 48.1791842 9.79999999 48.1791842 13.755102 48.1791842 17.7489795 45.1435323 20.792857 41.0703791 20.792857zM41.0895921 18.3306122C43.6641323 18.3306122 45.5085791 16.3918368 45.5085791 13.755102 45.5085791 11.1571428 43.6641323 9.17959184 41.0895921 9.17959184 38.4958389 9.17959184 36.6513922 11.1571428 36.6513922 13.755102 36.6513922 16.3918368 38.4958389 18.3306122 41.0895921 18.3306122zM50.9067185 25L50.9067185 10.3428571 53.3659806 10.3428571 53.3659806 11.6418367 53.5004716 11.6418367C53.7694534 11.2153061 54.6916768 10.0908163 56.5361235 10.0908163 59.3604326 10.0908163 61.3009442 12.2234694 61.3009442 15.4030613 61.3009442 18.5826531 59.3796455 20.792857 56.6129754 20.792857 54.8261677 20.792857 53.8655183 19.7846939 53.5388976 19.2224489L53.4044067 19.2224489 53.4044067 25 50.9067185 25zM56.0557988 18.505102C57.6696897 18.505102 58.7648299 17.2448979 58.7648299 15.4418368 58.7648299 13.5806122 57.6696897 12.3785714 56.0365858 12.3785714 54.3842691 12.3785714 53.3467677 13.7163265 53.3467677 15.4418368 53.3467677 17.3418367 54.4995469 18.505102 56.0557988 18.505102zM68.4474654 20.792857C65.4694525 20.792857 63.3560239 18.5438776 63.3560239 15.4999999 63.3560239 12.2816326 65.4886654 10.0908163 68.4474654 10.0908163 71.6944601 10.0908163 73.4620548 12.5142857 73.4620548 15.3836735L73.4620548 16.1785714 65.7768602 16.1785714C65.8537121 17.7295919 66.9104264 18.7765305 68.5243173 18.7765305 69.7539485 18.7765305 70.6953847 18.1948979 71.0412186 17.3612245L73.3659899 17.3612245C72.8664523 19.4357143 71.0604315 20.792857 68.4474654 20.792857zM65.8152862 14.3948979L71.0796446 14.3948979C70.9643666 13.0183673 69.9076523 12.1071428 68.4474654 12.1071428 67.0449173 12.1071428 65.9689901 13.1153061 65.8152862 14.3948979zM76.1511631 20.5408163L76.1511631 10.3428571 78.5335736 10.3428571 78.5335736 11.5836735 78.6680645 11.5836735C79.0715372 10.827551 80.0706124 10.0908163 81.5115865 10.0908163 83.7787189 10.0908163 85.1620539 11.7 85.1620539 13.8714286L85.1620539 20.5408163 82.6643657 20.5408163 82.6643657 14.5306122C82.6643657 13.2897959 81.8766332 12.4561224 80.7238539 12.4561224 79.5134359 12.4561224 78.6488514 13.4255102 78.6488514 14.705102L78.6488514 20.5408163 76.1511631 20.5408163zM87.6398194 20.5408163L87.6398194 18.2336734 94.6333464 9.33469387 94.6333464 9.19897958 87.8895882 9.19897958 87.8895882 6.96938775 97.8227022 6.96938775 97.8227022 9.25714285 90.8291752 18.1561224 90.8291752 18.3112245 97.8611283 18.3112245 97.8611283 20.5408163 87.6398194 20.5408163zM104.62339 20.792857C101.645377 20.792857 99.5319483 18.5438776 99.5319483 15.4999999 99.5319483 12.2816326 101.66459 10.0908163 104.62339 10.0908163 107.870384 10.0908163 109.637979 12.5142857 109.637979 15.3836735L109.637979 16.1785714 101.952785 16.1785714C102.029636 17.7295919 103.086351 18.7765305 104.700242 18.7765305 105.929873 18.7765305 106.871309 18.1948979 107.217143 17.3612245L109.541914 17.3612245C109.042377 19.4357143 107.236356 20.792857 104.62339 20.792857zM101.99121 14.3948979L107.255569 14.3948979C107.140291 13.0183673 106.083577 12.1071428 104.62339 12.1071428 103.220842 12.1071428 102.144914 13.1153061 101.99121 14.3948979zM112.327088 25L112.327088 10.3428571 114.78635 10.3428571 114.78635 11.6418367 114.920841 11.6418367C115.189822 11.2153061 116.112046 10.0908163 117.956493 10.0908163 120.780802 10.0908163 122.721313 12.2234694 122.721313 15.4030613 122.721313 18.5826531 120.800015 20.792857 118.033344 20.792857 116.246537 20.792857 115.285887 19.7846939 114.959267 19.2224489L114.824776 19.2224489 114.824776 25 112.327088 25zM117.476168 18.505102C119.090059 18.505102 120.185199 17.2448979 120.185199 15.4418368 120.185199 13.5806122 119.090059 12.3785714 117.456955 12.3785714 115.804638 12.3785714 114.767137 13.7163265 114.767137 15.4418368 114.767137 17.3418367 115.919916 18.505102 117.476168 18.505102zM125.410422 25L125.410422 10.3428571 127.869684 10.3428571 127.869684 11.6418367 128.004175 11.6418367C128.273157 11.2153061 129.19538 10.0908163 131.039827 10.0908163 133.864136 10.0908163 135.804647 12.2234694 135.804647 15.4030613 135.804647 18.5826531 133.883349 20.792857 131.116679 20.792857 129.329871 20.792857 128.369221 19.7846939 128.042601 19.2224489L127.90811 19.2224489 127.90811 25 125.410422 25zM130.559502 18.505102C132.173393 18.505102 133.268533 17.2448979 133.268533 15.4418368 133.268533 13.5806122 132.173393 12.3785714 130.540289 12.3785714 128.887972 12.3785714 127.850471 13.7163265 127.850471 15.4418368 127.850471 17.3418367 129.00325 18.505102 130.559502 18.505102zM142.951168 20.792857C139.973155 20.792857 137.859727 18.5438776 137.859727 15.4999999 137.859727 12.2816326 139.992368 10.0908163 142.951168 10.0908163 146.198164 10.0908163 147.965759 12.5142857 147.965759 15.3836735L147.965759 16.1785714 140.280564 16.1785714C140.357415 17.7295919 141.41413 18.7765305 143.028021 18.7765305 144.257652 18.7765305 145.199088 18.1948979 145.544922 17.3612245L147.869693 17.3612245C147.370155 19.4357143 145.564135 20.792857 142.951168 20.792857zM140.31899 14.3948979L145.583347 14.3948979C145.46807 13.0183673 144.411356 12.1071428 142.951168 12.1071428 141.54862 12.1071428 140.472693 13.1153061 140.31899 14.3948979zM153.114129 20.5408163C151.346534 20.5408163 150.347459 19.4744898 150.347459 17.6714285L150.347459 6 152.845147 6 152.845147 17.4387755C152.845147 18.0204081 153.133341 18.3306122 153.652092 18.3306122L154.055564 18.3306122 154.055564 20.5408163 153.114129 20.5408163zM157.705323 8.98571428C156.802312 8.98571428 156.168283 8.42346938 156.168283 7.51224489 156.168283 6.63979592 156.802312 6.05816326 157.705323 6.05816326 158.608333 6.05816326 159.242361 6.63979592 159.242361 7.51224489 159.242361 8.42346938 158.608333 8.98571428 157.705323 8.98571428zM156.456479 20.5408163L156.456479 10.3428571 158.954167 10.3428571 158.954167 20.5408163 156.456479 20.5408163zM161.989108 20.5408163L161.989108 10.3428571 164.37152 10.3428571 164.37152 11.5836735 164.50601 11.5836735C164.909483 10.827551 165.908558 10.0908163 167.349532 10.0908163 169.616665 10.0908163 171 11.7 171 13.8714286L171 20.5408163 168.502311 20.5408163 168.502311 14.5306122C168.502311 13.2897959 167.714579 12.4561224 166.561799 12.4561224 165.351382 12.4561224 164.486797 13.4255102 164.486797 14.705102L164.486797 20.5408163 161.989108 20.5408163z"/>
  </g>
</svg>
